<!--
  Memory-stress corpus (not asserted by RenderTests.swift): a 200-level deep
  chain of <use> instancing a single template rect, each level adding a small
  offset. Exercises resolved-instance traversal depth (ReferenceResolver's
  cycle guard + StyleResolver's per-instance re-resolution, MemoryModel.md);
  confirm walking/resolving this document is O(depth), not exponential, and
  that no shadow-subtree copy happens per level.
-->
<svg xmlns="http://www.w3.org/2000/svg" width="100" height="100" viewBox="0 0 100 100">
  <rect x="0" y="0" width="100" height="100" fill="#FFFFFF"/>
  <defs>
    <rect id="tpl0" x="0" y="0" width="4" height="4" fill="#663399"/>
    <use id="tpl1" href="#tpl0" x="0.1" y="0.1"/>
    <use id="tpl2" href="#tpl1" x="0.1" y="0.1"/>
    <use id="tpl3" href="#tpl2" x="0.1" y="0.1"/>
    <use id="tpl4" href="#tpl3" x="0.1" y="0.1"/>
    <use id="tpl5" href="#tpl4" x="0.1" y="0.1"/>
    <use id="tpl6" href="#tpl5" x="0.1" y="0.1"/>
    <use id="tpl7" href="#tpl6" x="0.1" y="0.1"/>
    <use id="tpl8" href="#tpl7" x="0.1" y="0.1"/>
    <use id="tpl9" href="#tpl8" x="0.1" y="0.1"/>
    <use id="tpl10" href="#tpl9" x="0.1" y="0.1"/>
    <use id="tpl11" href="#tpl10" x="0.1" y="0.1"/>
    <use id="tpl12" href="#tpl11" x="0.1" y="0.1"/>
    <use id="tpl13" href="#tpl12" x="0.1" y="0.1"/>
    <use id="tpl14" href="#tpl13" x="0.1" y="0.1"/>
    <use id="tpl15" href="#tpl14" x="0.1" y="0.1"/>
    <use id="tpl16" href="#tpl15" x="0.1" y="0.1"/>
    <use id="tpl17" href="#tpl16" x="0.1" y="0.1"/>
    <use id="tpl18" href="#tpl17" x="0.1" y="0.1"/>
    <use id="tpl19" href="#tpl18" x="0.1" y="0.1"/>
    <use id="tpl20" href="#tpl19" x="0.1" y="0.1"/>
    <use id="tpl21" href="#tpl20" x="0.1" y="0.1"/>
    <use id="tpl22" href="#tpl21" x="0.1" y="0.1"/>
    <use id="tpl23" href="#tpl22" x="0.1" y="0.1"/>
    <use id="tpl24" href="#tpl23" x="0.1" y="0.1"/>
    <use id="tpl25" href="#tpl24" x="0.1" y="0.1"/>
    <use id="tpl26" href="#tpl25" x="0.1" y="0.1"/>
    <use id="tpl27" href="#tpl26" x="0.1" y="0.1"/>
    <use id="tpl28" href="#tpl27" x="0.1" y="0.1"/>
    <use id="tpl29" href="#tpl28" x="0.1" y="0.1"/>
    <use id="tpl30" href="#tpl29" x="0.1" y="0.1"/>
    <use id="tpl31" href="#tpl30" x="0.1" y="0.1"/>
    <use id="tpl32" href="#tpl31" x="0.1" y="0.1"/>
    <use id="tpl33" href="#tpl32" x="0.1" y="0.1"/>
    <use id="tpl34" href="#tpl33" x="0.1" y="0.1"/>
    <use id="tpl35" href="#tpl34" x="0.1" y="0.1"/>
    <use id="tpl36" href="#tpl35" x="0.1" y="0.1"/>
    <use id="tpl37" href="#tpl36" x="0.1" y="0.1"/>
    <use id="tpl38" href="#tpl37" x="0.1" y="0.1"/>
    <use id="tpl39" href="#tpl38" x="0.1" y="0.1"/>
    <use id="tpl40" href="#tpl39" x="0.1" y="0.1"/>
    <use id="tpl41" href="#tpl40" x="0.1" y="0.1"/>
    <use id="tpl42" href="#tpl41" x="0.1" y="0.1"/>
    <use id="tpl43" href="#tpl42" x="0.1" y="0.1"/>
    <use id="tpl44" href="#tpl43" x="0.1" y="0.1"/>
    <use id="tpl45" href="#tpl44" x="0.1" y="0.1"/>
    <use id="tpl46" href="#tpl45" x="0.1" y="0.1"/>
    <use id="tpl47" href="#tpl46" x="0.1" y="0.1"/>
    <use id="tpl48" href="#tpl47" x="0.1" y="0.1"/>
    <use id="tpl49" href="#tpl48" x="0.1" y="0.1"/>
    <use id="tpl50" href="#tpl49" x="0.1" y="0.1"/>
    <use id="tpl51" href="#tpl50" x="0.1" y="0.1"/>
    <use id="tpl52" href="#tpl51" x="0.1" y="0.1"/>
    <use id="tpl53" href="#tpl52" x="0.1" y="0.1"/>
    <use id="tpl54" href="#tpl53" x="0.1" y="0.1"/>
    <use id="tpl55" href="#tpl54" x="0.1" y="0.1"/>
    <use id="tpl56" href="#tpl55" x="0.1" y="0.1"/>
    <use id="tpl57" href="#tpl56" x="0.1" y="0.1"/>
    <use id="tpl58" href="#tpl57" x="0.1" y="0.1"/>
    <use id="tpl59" href="#tpl58" x="0.1" y="0.1"/>
    <use id="tpl60" href="#tpl59" x="0.1" y="0.1"/>
    <use id="tpl61" href="#tpl60" x="0.1" y="0.1"/>
    <use id="tpl62" href="#tpl61" x="0.1" y="0.1"/>
    <use id="tpl63" href="#tpl62" x="0.1" y="0.1"/>
    <use id="tpl64" href="#tpl63" x="0.1" y="0.1"/>
    <use id="tpl65" href="#tpl64" x="0.1" y="0.1"/>
    <use id="tpl66" href="#tpl65" x="0.1" y="0.1"/>
    <use id="tpl67" href="#tpl66" x="0.1" y="0.1"/>
    <use id="tpl68" href="#tpl67" x="0.1" y="0.1"/>
    <use id="tpl69" href="#tpl68" x="0.1" y="0.1"/>
    <use id="tpl70" href="#tpl69" x="0.1" y="0.1"/>
    <use id="tpl71" href="#tpl70" x="0.1" y="0.1"/>
    <use id="tpl72" href="#tpl71" x="0.1" y="0.1"/>
    <use id="tpl73" href="#tpl72" x="0.1" y="0.1"/>
    <use id="tpl74" href="#tpl73" x="0.1" y="0.1"/>
    <use id="tpl75" href="#tpl74" x="0.1" y="0.1"/>
    <use id="tpl76" href="#tpl75" x="0.1" y="0.1"/>
    <use id="tpl77" href="#tpl76" x="0.1" y="0.1"/>
    <use id="tpl78" href="#tpl77" x="0.1" y="0.1"/>
    <use id="tpl79" href="#tpl78" x="0.1" y="0.1"/>
    <use id="tpl80" href="#tpl79" x="0.1" y="0.1"/>
    <use id="tpl81" href="#tpl80" x="0.1" y="0.1"/>
    <use id="tpl82" href="#tpl81" x="0.1" y="0.1"/>
    <use id="tpl83" href="#tpl82" x="0.1" y="0.1"/>
    <use id="tpl84" href="#tpl83" x="0.1" y="0.1"/>
    <use id="tpl85" href="#tpl84" x="0.1" y="0.1"/>
    <use id="tpl86" href="#tpl85" x="0.1" y="0.1"/>
    <use id="tpl87" href="#tpl86" x="0.1" y="0.1"/>
    <use id="tpl88" href="#tpl87" x="0.1" y="0.1"/>
    <use id="tpl89" href="#tpl88" x="0.1" y="0.1"/>
    <use id="tpl90" href="#tpl89" x="0.1" y="0.1"/>
    <use id="tpl91" href="#tpl90" x="0.1" y="0.1"/>
    <use id="tpl92" href="#tpl91" x="0.1" y="0.1"/>
    <use id="tpl93" href="#tpl92" x="0.1" y="0.1"/>
    <use id="tpl94" href="#tpl93" x="0.1" y="0.1"/>
    <use id="tpl95" href="#tpl94" x="0.1" y="0.1"/>
    <use id="tpl96" href="#tpl95" x="0.1" y="0.1"/>
    <use id="tpl97" href="#tpl96" x="0.1" y="0.1"/>
    <use id="tpl98" href="#tpl97" x="0.1" y="0.1"/>
    <use id="tpl99" href="#tpl98" x="0.1" y="0.1"/>
    <use id="tpl100" href="#tpl99" x="0.1" y="0.1"/>
    <use id="tpl101" href="#tpl100" x="0.1" y="0.1"/>
    <use id="tpl102" href="#tpl101" x="0.1" y="0.1"/>
    <use id="tpl103" href="#tpl102" x="0.1" y="0.1"/>
    <use id="tpl104" href="#tpl103" x="0.1" y="0.1"/>
    <use id="tpl105" href="#tpl104" x="0.1" y="0.1"/>
    <use id="tpl106" href="#tpl105" x="0.1" y="0.1"/>
    <use id="tpl107" href="#tpl106" x="0.1" y="0.1"/>
    <use id="tpl108" href="#tpl107" x="0.1" y="0.1"/>
    <use id="tpl109" href="#tpl108" x="0.1" y="0.1"/>
    <use id="tpl110" href="#tpl109" x="0.1" y="0.1"/>
    <use id="tpl111" href="#tpl110" x="0.1" y="0.1"/>
    <use id="tpl112" href="#tpl111" x="0.1" y="0.1"/>
    <use id="tpl113" href="#tpl112" x="0.1" y="0.1"/>
    <use id="tpl114" href="#tpl113" x="0.1" y="0.1"/>
    <use id="tpl115" href="#tpl114" x="0.1" y="0.1"/>
    <use id="tpl116" href="#tpl115" x="0.1" y="0.1"/>
    <use id="tpl117" href="#tpl116" x="0.1" y="0.1"/>
    <use id="tpl118" href="#tpl117" x="0.1" y="0.1"/>
    <use id="tpl119" href="#tpl118" x="0.1" y="0.1"/>
    <use id="tpl120" href="#tpl119" x="0.1" y="0.1"/>
    <use id="tpl121" href="#tpl120" x="0.1" y="0.1"/>
    <use id="tpl122" href="#tpl121" x="0.1" y="0.1"/>
    <use id="tpl123" href="#tpl122" x="0.1" y="0.1"/>
    <use id="tpl124" href="#tpl123" x="0.1" y="0.1"/>
    <use id="tpl125" href="#tpl124" x="0.1" y="0.1"/>
    <use id="tpl126" href="#tpl125" x="0.1" y="0.1"/>
    <use id="tpl127" href="#tpl126" x="0.1" y="0.1"/>
    <use id="tpl128" href="#tpl127" x="0.1" y="0.1"/>
    <use id="tpl129" href="#tpl128" x="0.1" y="0.1"/>
    <use id="tpl130" href="#tpl129" x="0.1" y="0.1"/>
    <use id="tpl131" href="#tpl130" x="0.1" y="0.1"/>
    <use id="tpl132" href="#tpl131" x="0.1" y="0.1"/>
    <use id="tpl133" href="#tpl132" x="0.1" y="0.1"/>
    <use id="tpl134" href="#tpl133" x="0.1" y="0.1"/>
    <use id="tpl135" href="#tpl134" x="0.1" y="0.1"/>
    <use id="tpl136" href="#tpl135" x="0.1" y="0.1"/>
    <use id="tpl137" href="#tpl136" x="0.1" y="0.1"/>
    <use id="tpl138" href="#tpl137" x="0.1" y="0.1"/>
    <use id="tpl139" href="#tpl138" x="0.1" y="0.1"/>
    <use id="tpl140" href="#tpl139" x="0.1" y="0.1"/>
    <use id="tpl141" href="#tpl140" x="0.1" y="0.1"/>
    <use id="tpl142" href="#tpl141" x="0.1" y="0.1"/>
    <use id="tpl143" href="#tpl142" x="0.1" y="0.1"/>
    <use id="tpl144" href="#tpl143" x="0.1" y="0.1"/>
    <use id="tpl145" href="#tpl144" x="0.1" y="0.1"/>
    <use id="tpl146" href="#tpl145" x="0.1" y="0.1"/>
    <use id="tpl147" href="#tpl146" x="0.1" y="0.1"/>
    <use id="tpl148" href="#tpl147" x="0.1" y="0.1"/>
    <use id="tpl149" href="#tpl148" x="0.1" y="0.1"/>
    <use id="tpl150" href="#tpl149" x="0.1" y="0.1"/>
    <use id="tpl151" href="#tpl150" x="0.1" y="0.1"/>
    <use id="tpl152" href="#tpl151" x="0.1" y="0.1"/>
    <use id="tpl153" href="#tpl152" x="0.1" y="0.1"/>
    <use id="tpl154" href="#tpl153" x="0.1" y="0.1"/>
    <use id="tpl155" href="#tpl154" x="0.1" y="0.1"/>
    <use id="tpl156" href="#tpl155" x="0.1" y="0.1"/>
    <use id="tpl157" href="#tpl156" x="0.1" y="0.1"/>
    <use id="tpl158" href="#tpl157" x="0.1" y="0.1"/>
    <use id="tpl159" href="#tpl158" x="0.1" y="0.1"/>
    <use id="tpl160" href="#tpl159" x="0.1" y="0.1"/>
    <use id="tpl161" href="#tpl160" x="0.1" y="0.1"/>
    <use id="tpl162" href="#tpl161" x="0.1" y="0.1"/>
    <use id="tpl163" href="#tpl162" x="0.1" y="0.1"/>
    <use id="tpl164" href="#tpl163" x="0.1" y="0.1"/>
    <use id="tpl165" href="#tpl164" x="0.1" y="0.1"/>
    <use id="tpl166" href="#tpl165" x="0.1" y="0.1"/>
    <use id="tpl167" href="#tpl166" x="0.1" y="0.1"/>
    <use id="tpl168" href="#tpl167" x="0.1" y="0.1"/>
    <use id="tpl169" href="#tpl168" x="0.1" y="0.1"/>
    <use id="tpl170" href="#tpl169" x="0.1" y="0.1"/>
    <use id="tpl171" href="#tpl170" x="0.1" y="0.1"/>
    <use id="tpl172" href="#tpl171" x="0.1" y="0.1"/>
    <use id="tpl173" href="#tpl172" x="0.1" y="0.1"/>
    <use id="tpl174" href="#tpl173" x="0.1" y="0.1"/>
    <use id="tpl175" href="#tpl174" x="0.1" y="0.1"/>
    <use id="tpl176" href="#tpl175" x="0.1" y="0.1"/>
    <use id="tpl177" href="#tpl176" x="0.1" y="0.1"/>
    <use id="tpl178" href="#tpl177" x="0.1" y="0.1"/>
    <use id="tpl179" href="#tpl178" x="0.1" y="0.1"/>
    <use id="tpl180" href="#tpl179" x="0.1" y="0.1"/>
    <use id="tpl181" href="#tpl180" x="0.1" y="0.1"/>
    <use id="tpl182" href="#tpl181" x="0.1" y="0.1"/>
    <use id="tpl183" href="#tpl182" x="0.1" y="0.1"/>
    <use id="tpl184" href="#tpl183" x="0.1" y="0.1"/>
    <use id="tpl185" href="#tpl184" x="0.1" y="0.1"/>
    <use id="tpl186" href="#tpl185" x="0.1" y="0.1"/>
    <use id="tpl187" href="#tpl186" x="0.1" y="0.1"/>
    <use id="tpl188" href="#tpl187" x="0.1" y="0.1"/>
    <use id="tpl189" href="#tpl188" x="0.1" y="0.1"/>
    <use id="tpl190" href="#tpl189" x="0.1" y="0.1"/>
    <use id="tpl191" href="#tpl190" x="0.1" y="0.1"/>
    <use id="tpl192" href="#tpl191" x="0.1" y="0.1"/>
    <use id="tpl193" href="#tpl192" x="0.1" y="0.1"/>
    <use id="tpl194" href="#tpl193" x="0.1" y="0.1"/>
    <use id="tpl195" href="#tpl194" x="0.1" y="0.1"/>
    <use id="tpl196" href="#tpl195" x="0.1" y="0.1"/>
    <use id="tpl197" href="#tpl196" x="0.1" y="0.1"/>
    <use id="tpl198" href="#tpl197" x="0.1" y="0.1"/>
    <use id="tpl199" href="#tpl198" x="0.1" y="0.1"/>
  </defs>
  <use href="#tpl199" x="48" y="48"/>
</svg>
